<?xml version="1.0" encoding="UTF-8"?>
<svg version="1.1" xmlns="http://www.w3.org/2000/svg" width="64" height="64">
<path d="M0 0 C6.26779211 5.01169612 10.29925402 12.5409717 11.75 20.375 C12.66662233 29.23568249 10.0859631 38.58709513 4.9375 45.875 C-1.23192928 53.18292745 -8.47288266 56.570769 -17.94921875 57.6953125 C-27.16030079 58.08951002 -34.97241918 55.59995849 -42.125 49.75 C-48.93419964 43.23366916 -52.32631789 35.14790875 -52.5625 25.8125 C-52.43086827 15.97601958 -49.34684377 8.43406146 -42.5390625 1.3203125 C-29.76410518 -9.5362212 -13.55057584 -9.03371723 0 0 Z " fill="#26293C" transform="translate(52.25,6.625)"/>
<path d="M0 0 C6.26779211 5.01169612 10.29925402 12.5409717 11.75 20.375 C12.66535183 29.22340099 10.07390603 38.55526671 5 45.875 C1.8639018 49.67048295 -1.92749712 52.09306955 -6.25 54.375 C-8.28248453 44.12717884 -8.28248453 44.12717884 -5.79296875 39.90234375 C-3.875 37.8125 -3.875 37.8125 -1.9140625 35.99609375 C0.74865303 33.40213378 0.75990955 31.22387933 1 27.5625 C0.94731262 22.77672954 -0.94879436 19.54367607 -3.375 15.5 C-4.73076214 12.20743481 -4.89643737 8.91062629 -5.25 5.375 C-9.47932162 5.7718836 -9.47932162 5.7718836 -13.01953125 7.89453125 C-16.12907222 9.95848226 -18.4874207 9.77369314 -22.1875 9.75 C-23.99541016 9.76160156 -23.99541016 9.76160156 -25.83984375 9.7734375 C-29.49169143 9.34676114 -31.18376558 8.28445076 -34.25 6.375 C-36.95953551 6.12303871 -36.95953551 6.12303871 -39.25 6.375 C-39.22679687 7.18324219 -39.20359375 7.99148438 -39.1796875 8.82421875 C-39.15261719 10.42716797 -39.15261719 10.42716797 -39.125 12.0625 C-39.10179687 13.11824219 -39.07859375 14.17398437 -39.0546875 15.26171875 C-39.25411088 18.44052744 -40.04074105 20.46347654 -41.25 23.375 C-41.91140829 28.65857549 -41.9373339 33.02487984 -39.5 37.8125 C-37.37327545 40.40436309 -37.37327545 40.40436309 -34.875 42.1875 C-33.25 44.375 -33.25 44.375 -33.4453125 46.62109375 C-33.95291493 48.91245401 -34.54254039 51.13789799 -35.25 53.375 C-42.09338124 51.07800421 -46.29114821 46.03079582 -49.65234375 39.7578125 C-53.56534502 30.14937522 -53.59423328 20.57929602 -49.6328125 10.98046875 C-44.90957477 2.08103495 -37.8585697 -3.25687088 -28.3046875 -6.23046875 C-17.72780038 -8.26139194 -8.82177872 -5.88118581 0 0 Z " fill="#F3A87E" transform="translate(52.25,6.625)"/>
<path d="M0 0 C-1.41548045 1.69656877 -2.84496964 3.37734835 -4.296875 5.04296875 C-5.3707509 6.27694083 -6.42585922 7.5277449 -7.453125 8.80078125 C-10.94311873 12.8181092 -10.94311873 12.8181092 -14.15625 13.37109375 C-16.375 13.375 -16.375 13.375 -20 13 C-19.97679687 13.80824219 -19.95359375 14.61648438 -19.9296875 15.44921875 C-19.90261719 17.05216797 -19.90261719 17.05216797 -19.875 18.6875 C-19.85179687 19.74324219 -19.82859375 20.79898437 -19.8046875 21.88671875 C-20.00411088 25.06552744 -20.79074105 27.08847654 -22 30 C-22.66140829 35.28357549 -22.6873339 39.64987984 -20.25 44.4375 C-18.12327545 47.02936309 -18.12327545 47.02936309 -15.625 48.8125 C-14 51 -14 51 -14.1953125 53.24609375 C-14.70291493 55.53745401 -15.29254039 57.76289799 -16 60 C-22.84338124 57.70300421 -27.04114821 52.65579582 -30.40234375 46.3828125 C-34.31534502 36.77437522 -34.34423328 27.20429602 -30.3828125 17.60546875 C-25.96579668 9.28301239 -19.73010992 4.32575616 -11 1 C-7.29355748 -0.11614462 -3.86628476 -0.07435163 0 0 Z " fill="#EB8695" transform="translate(33,0)"/>
<path d="M0 0 C3.48359122 3.48359122 3.88138782 7.85341555 4.375 12.625 C4.08912661 21.80868256 0.69166146 31.58084964 -6 38 C-8.56340274 39.88784895 -11.1859416 41.51440572 -14 43 C-16.03248453 32.75217884 -16.03248453 32.75217884 -13.54296875 28.52734375 C-11.625 26.4375 -11.625 26.4375 -9.6640625 24.62109375 C-6.93160714 21.95919475 -6.99453628 19.82789271 -6.875 16.0625 C-6.86615508 13.76724211 -6.93525241 12.17075918 -7.75390625 10.01171875 C-8 8 -8 8 -6.34765625 5.859375 C-5.21650391 4.81523437 -5.21650391 4.81523437 -4.0625 3.75 C-3.31097656 3.04359375 -2.55945312 2.3371875 -1.78515625 1.609375 C-1.19605469 1.07828125 -0.60695313 0.5471875 0 0 Z " fill="#C49EF2" transform="translate(60,18)"/>
<path d="M0 0 C0.391875 0.53625 0.78375 1.0725 1.1875 1.625 C3.94667802 5.24047465 6.78083854 8.78083854 10 12 C9.7578125 14.1640625 9.7578125 14.1640625 9.125 16.625 C8.92132813 17.44226563 8.71765625 18.25953125 8.5078125 19.1015625 C8.25644531 20.04128906 8.25644531 20.04128906 8 21 C3.83703539 19.64630871 1.61246848 17.91356111 -1.25 14.625 C-1.93578125 13.85414062 -2.6215625 13.08328125 -3.328125 12.2890625 C-4.96336561 10.05015831 -5.88144965 8.76617493 -6 6 C-4.78515625 4.296875 -4.78515625 4.296875 -3.0625 2.75 C-2.21365234 1.96882813 -2.21365234 1.96882813 -1.34765625 1.171875 C-0.90292969 0.78515625 -0.45820313 0.3984375 0 0 Z " fill="#ECD19E" transform="translate(9,39)"/>
<path d="M0 0 C1.14920821 3.86036843 0.49408105 5.26479737 -1 9 C-1.10399739 10.47785758 -1.18543168 11.95739548 -1.25 13.4375 C-1.57529188 17.10777447 -2.35336204 18.9220491 -4.9375 21.5625 C-8 24 -8 24 -10 24 C-12.6075217 15.68852459 -12.6075217 15.68852459 -12 12 C-10.24552109 9.63350239 -8.15603541 7.68571751 -6 5.6875 C-5.14148438 4.86282227 -5.14148438 4.86282227 -4.265625 4.02148438 C-2.85476051 2.6694059 -1.42879488 1.33311665 0 0 Z " fill="#F3A77E" transform="translate(12,21)"/>
<path d="M0 0 C2.79539133 2.79539133 3.51729629 5.34322648 4.2890625 9.1796875 C3.76654819 14.27773252 -0.07201878 16.91391309 -3.7421875 20.1640625 C-4.48726562 20.76992188 -5.23234375 21.37578125 -6 22 C-7.32962752 19.34074496 -7.02617155 16.98538984 -6.9375 14.0703125 C-6.88962647 11.96889063 -6.88962647 11.96889063 -7.74609375 10.0078125 C-8 8 -8 8 -6.34765625 5.859375 C-5.59355469 5.16328125 -4.83945312 4.4671875 -4.0625 3.75 C-3.31097656 3.04359375 -2.55945312 2.3371875 -1.78515625 1.609375 C-1.19605469 1.07828125 -0.60695313 0.5471875 0 0 Z " fill="#7DC2E2" transform="translate(60,18)"/>
<path d="M0 0 C2.55647205 2.29426978 4.64223651 4.32024937 6.25 7.375 C5.82631393 11.82370373 2.25051089 14.18721377 -1 17 C-3.5 15.4375 -3.5 15.4375 -6 13 C-6.6875 9.625 -6.6875 9.625 -6 6 C-4.19334969 3.62063633 -2.29584342 1.96103292 0 0 Z " fill="#A4D894" transform="translate(54,9)"/>
<path d="M0 0 C3.81433013 1.52573205 5.96552304 2.52746322 9 5 C7.60667426 8.36720387 6.0210714 9.9859524 3 12 C2.67 11.01 2.34 10.02 2 9 C-2.21912747 9.4794463 -4.79663178 10.16625119 -8 13 C-8.99 12.34 -9.98 11.68 -11 11 C-7.37 7.37 -3.74 3.74 0 0 Z " fill="#ECD29D" transform="translate(45,3)"/>
<path d="M0 0 C1.32 0.99 2.64 1.98 4 3 C3.34 5.97 2.68 8.94 2 12 C-1.91402949 10.73058503 -3.79072873 9.48832306 -6 6 C-4.02 4.02 -2.04 2.04 0 0 Z " fill="#A6D794" transform="translate(15,48)"/>
<path d="M0 0 C1.1446875 0.2784375 1.1446875 0.2784375 2.3125 0.5625 C5.08967375 1.22819173 5.08967375 1.22819173 8 0 C8 1.65 8 3.3 8 5 C5.6739143 5.38063221 3.33944736 5.71269945 1 6 C0 5 0 5 -0.0625 2.4375 C-0.041875 1.633125 -0.02125 0.82875 0 0 Z " fill="#EC979E" transform="translate(33,50)"/>
<path d="M0 0 C1.4540625 0.0309375 1.4540625 0.0309375 2.9375 0.0625 C3.5975 1.3825 4.2575 2.7025 4.9375 4.0625 C4.03 3.85625 3.1225 3.65 2.1875 3.4375 C-1.17277897 3.0497755 -2.30325815 3.25838033 -5.0625 5.0625 C-3.9375 0.08035714 -3.9375 0.08035714 0 0 Z " fill="#C9D2F3" transform="translate(29.0625,24.9375)"/>
<path d="M0 0 C1.65 0.33 3.3 0.66 5 1 C5 1.99 5 2.98 5 4 C2.69 4 0.38 4 -2 4 C-1.34 2.68 -0.68 1.36 0 0 Z " fill="#C8D1F3" transform="translate(41,24)"/>
</svg>
